<svg>
<symbol id="icon-water-small" viewBox="0 0 40 40">
  <path stroke="currentColor" stroke-miterlimit="10" stroke-width="1.25" d="M15.625 12.5c0 3.452-2.173 5.625-5.625 5.625S4.375 15.952 4.375 12.5c0-3.704 4.032-8.705 5.27-10.152a.47.47 0 0 1 .711 0c1.237 1.447 5.269 6.448 5.269 10.152Z"/>
  <path stroke="currentColor" stroke-linecap="round" stroke-linejoin="round" stroke-width="1.25" d="M13.438 12.813a2.81 2.81 0 0 1-2.813 2.812"/>
</symbol>
<symbol id="hugeicons_gas-stove-small" viewBox="0 0 40 40"> 
    <path d="M5 15.833h3.333m6.667.008v-.008M1.667 5c0-2.758.575-3.333 3.333-3.333h10c2.758 0 3.333.575 3.333 3.333v10c0 2.758-.575 3.333-3.333 3.333H5c-2.758 0-3.333-.575-3.333-3.333z"/>
    <path d="M10 11.667A3.333 3.333 0 1 0 10 5a3.333 3.333 0 0 0 0 6.667m2.917-3.334h1.25M10 11.25v1.25M7.083 8.333h-1.25M10 5.417v-1.25"/>
  </symbol>
<symbol id="lucide_microwave-small" viewBox="0 0 40 40"><path stroke="currentColor" stroke-linecap="round" stroke-linejoin="round" stroke-width="1.25" d="M16.667 3.333H3.333c-.92 0-1.666.747-1.666 1.667v9.167c0 .92.746 1.666 1.666 1.666h13.334c.92 0 1.666-.746 1.666-1.666V5c0-.92-.746-1.667-1.666-1.667"/>
  <path stroke="currentColor" stroke-linecap="round" stroke-linejoin="round" stroke-width="1.25" d="M10.833 6.667h-5A.833.833 0 0 0 5 7.5v4.167c0 .46.373.833.833.833h5c.46 0 .834-.373.834-.833V7.5a.833.833 0 0 0-.834-.833m4.167 0V12.5M5 15.833V17.5m10-1.667V17.5"/></symbol>
<symbol id="ph_shower-small" viewBox="0 0 40 40"><path fill="currentColor" d="M5 18.438a.937.937 0 1 1-1.874 0 .937.937 0 0 1 1.874 0M6.563 15a.938.938 0 1 0 0 1.875.938.938 0 0 0 0-1.875m-5 0a.938.938 0 1 0 0 1.875.938.938 0 0 0 0-1.875m2.5-2.5a.938.938 0 1 0 0 1.875.938.938 0 0 0 0-1.875M20 3.125a.625.625 0 0 1-.625.625h-2.241l-2.176 2.177-1.692 9.905a1.25 1.25 0 0 1-2.117.677L3.493 8.852a1.25 1.25 0 0 1 .679-2.117l9.901-1.693 2.36-2.36a.63.63 0 0 1 .442-.182h2.5a.625.625 0 0 1 .625.625M13.61 6.39 4.375 7.969l7.656 7.656z"/></symbol>
<symbol id="ui-radios-small" viewBox="0 0 40 40"><path fill="currentColor" d="M8.75 3.125a.625.625 0 0 1 .625-.625h8.75a.625.625 0 0 1 .625.625v1.25a.625.625 0 0 1-.625.625h-8.75a.625.625 0 0 1-.625-.625zM0 15a3.75 3.75 0 1 1 7.5 0A3.75 3.75 0 0 1 0 15m8.75-1.875a.625.625 0 0 1 .625-.625h8.75a.624.624 0 0 1 .625.625v1.25a.624.624 0 0 1-.625.625h-8.75a.625.625 0 0 1-.625-.625zm0-6.25a.625.625 0 0 1 .625-.625h6.25a.625.625 0 1 1 0 1.25h-6.25a.625.625 0 0 1-.625-.625m0 10a.625.625 0 0 1 .625-.625h6.25a.624.624 0 1 1 0 1.25h-6.25a.625.625 0 0 1-.625-.625m-5-15.625a3.75 3.75 0 1 0 0 7.5 3.75 3.75 0 0 0 0-7.5m0 5.625a1.875 1.875 0 1 1 0-3.75 1.875 1.875 0 0 1 0 3.75"/></symbol>
<symbol id="cup-hot-small" viewBox="0 0 40 40"><path fill-rule="evenodd" d="M.625 7.5a.625.625 0 0 0-.61.76l2.065 9.292A3.125 3.125 0 0 0 5.13 20h7.24a3.125 3.125 0 0 0 3.05-2.448l.164-.737a3.75 3.75 0 0 0 1.625-7.318l.276-1.237a.624.624 0 0 0-.61-.76zm15.625 8.125a2.5 2.5 0 0 1-.395-.031l1.084-4.873a2.502 2.502 0 0 1-.689 4.904M3.3 17.281 1.404 8.75h14.692L14.2 17.281a1.875 1.875 0 0 1-1.83 1.469H5.13a1.875 1.875 0 0 1-1.83-1.469" clip-rule="evenodd"/>
    <path d="m5.5 1-.004.005-.017.024a5 5 0 0 0-.255.387 2.5 2.5 0 0 0-.176.334c-.033.075-.043.115-.047.129v.005a.75.75 0 0 0 .114.31c.094.166.223.34.385.556l.013.015c.147.198.325.434.462.679.14.25.275.569.275.931 0 .235-.081.46-.149.618q-.108.252-.252.485a6 6 0 0 1-.317.477l-.022.031-.006.01L5.5 6a.625.625 0 1 1-1-.75l.004-.005.017-.024q.136-.187.255-.387a2.5 2.5 0 0 0 .176-.334c.033-.075.043-.115.047-.129a.75.75 0 0 0-.113-.315A5 5 0 0 0 4.5 3.5l-.013-.015a6 6 0 0 1-.462-.679 1.9 1.9 0 0 1-.275-.93c0-.236.081-.46.149-.618a4 4 0 0 1 .252-.485 8 8 0 0 1 .317-.478l.03-.044A.625.625 0 0 1 5.5 1m3.75 0-.004.005-.017.024a5 5 0 0 0-.255.387 2.5 2.5 0 0 0-.177.334c-.032.075-.042.115-.046.129v.005a.75.75 0 0 0 .114.31c.094.166.223.34.385.556l.012.015c.148.198.325.434.463.679.14.25.275.569.275.931 0 .235-.081.46-.149.618q-.108.252-.252.485a6 6 0 0 1-.316.477l-.023.031-.006.01L9.25 6a.625.625 0 1 1-1-.75l.004-.005.017-.024q.136-.187.255-.387a2.5 2.5 0 0 0 .177-.334c.032-.075.042-.115.046-.129a.75.75 0 0 0-.113-.315A5 5 0 0 0 8.25 3.5l-.012-.015a6 6 0 0 1-.463-.679 1.9 1.9 0 0 1-.275-.93c0-.236.081-.46.149-.618a4 4 0 0 1 .252-.485 8 8 0 0 1 .316-.478L8.25.251a.625.625 0 0 1 1 .749M13 1l-.004.005-.017.024a5 5 0 0 0-.255.387 2.5 2.5 0 0 0-.177.334c-.032.075-.042.115-.046.129v.005a.75.75 0 0 0 .114.31c.094.166.223.34.385.556l.012.015c.148.198.325.434.463.679.14.25.275.569.275.931 0 .235-.081.46-.149.618a4 4 0 0 1-.252.485 6 6 0 0 1-.315.477l-.024.031-.006.01L13 6a.625.625 0 0 1-1-.75l.004-.005.017-.024q.136-.187.255-.387.1-.16.177-.334c.032-.075.042-.115.046-.129a.75.75 0 0 0-.113-.315A5 5 0 0 0 12 3.5l-.012-.015a6 6 0 0 1-.463-.679 1.9 1.9 0 0 1-.275-.93c0-.236.081-.46.149-.618a4 4 0 0 1 .252-.485q.15-.246.316-.478L12 .251A.625.625 0 0 1 13 1"/>
  </symbol>
<symbol id="fuel-pump-small" viewBox="0 0 40 40"> 
    <path d="M3.75 3.125a.625.625 0 0 1 .625-.625h6.25a.625.625 0 0 1 .625.625v6.25a.625.625 0 0 1-.625.625h-6.25a.625.625 0 0 1-.625-.625z"/>
    <path d="M1.25 2.5A2.5 2.5 0 0 1 3.75 0h7.5a2.5 2.5 0 0 1 2.5 2.5v10a2.5 2.5 0 0 1 2.5 2.5v.625a.624.624 0 1 0 1.25 0V10h-.625a.625.625 0 0 1-.625-.625V5.469a.625.625 0 0 1 .625-.625h1.869c-.014-.595-.067-1.118-.252-1.528A1.2 1.2 0 0 0 18 2.744c-.23-.138-.58-.244-1.125-.244a.625.625 0 1 1 0-1.25q1.057-.003 1.765.42c.479.285.793.689.992 1.134.37.819.368 1.831.368 2.601v3.969a.625.625 0 0 1-.625.626h-.625v5.625a1.875 1.875 0 1 1-3.75 0V15a1.25 1.25 0 0 0-1.25-1.25v5h.625a.624.624 0 1 1 0 1.25H.625a.625.625 0 1 1 0-1.25h.625zm11.25 0a1.25 1.25 0 0 0-1.25-1.25h-7.5A1.25 1.25 0 0 0 2.5 2.5v16.25h10z"/>
  </symbol>
<symbol id="wind-small" viewBox="0 0 40 40">
    <path fill="currentColor" d="M15.625 2.5A3.125 3.125 0 0 0 12.5 5.625a.625.625 0 1 1-1.25 0A4.375 4.375 0 1 1 15.625 10h-15a.625.625 0 0 1 0-1.25h15a3.125 3.125 0 1 0 0-6.25m-8.75 1.25A1.25 1.25 0 0 0 5.625 5a.625.625 0 0 1-1.25 0 2.5 2.5 0 1 1 2.5 2.5H.625a.625.625 0 0 1 0-1.25h6.25a1.25 1.25 0 1 0 0-2.5M0 11.875a.625.625 0 0 1 .625-.625h12.553A3.75 3.75 0 1 1 9.428 15a.625.625 0 1 1 1.25 0 2.5 2.5 0 1 0 2.5-2.5H.624A.625.625 0 0 1 0 11.875"/>
  </symbol>
<symbol id="diagram-small" viewBox="0 0 40 40"><path fill="currentColor" fill-rule="evenodd" d="M7.5 4.375A1.875 1.875 0 0 1 9.375 2.5h1.25A1.875 1.875 0 0 1 12.5 4.375v1.25A1.875 1.875 0 0 1 10.625 7.5v1.25H17.5a.625.625 0 0 1 .625.625v1.25a.624.624 0 1 1-1.25 0V10h-6.25v.625a.624.624 0 1 1-1.25 0V10h-6.25v.625a.625.625 0 1 1-1.25 0v-1.25A.625.625 0 0 1 2.5 8.75h6.875V7.5A1.875 1.875 0 0 1 7.5 5.625zm3.125 1.875a.625.625 0 0 0 .625-.625v-1.25a.625.625 0 0 0-.625-.625h-1.25a.625.625 0 0 0-.625.625v1.25a.625.625 0 0 0 .625.625zM0 14.375A1.875 1.875 0 0 1 1.875 12.5h1.25A1.875 1.875 0 0 1 5 14.375v1.25A1.875 1.875 0 0 1 3.125 17.5h-1.25A1.875 1.875 0 0 1 0 15.625zm1.875-.625a.625.625 0 0 0-.625.625v1.25a.625.625 0 0 0 .625.625h1.25a.625.625 0 0 0 .625-.625v-1.25a.625.625 0 0 0-.625-.625zm5.625.625A1.875 1.875 0 0 1 9.375 12.5h1.25a1.875 1.875 0 0 1 1.875 1.875v1.25a1.875 1.875 0 0 1-1.875 1.875h-1.25A1.875 1.875 0 0 1 7.5 15.625zm1.875-.625a.625.625 0 0 0-.625.625v1.25a.625.625 0 0 0 .625.625h1.25a.624.624 0 0 0 .625-.625v-1.25a.624.624 0 0 0-.625-.625zm5.625.625a1.875 1.875 0 0 1 1.875-1.875h1.25A1.875 1.875 0 0 1 20 14.375v1.25a1.875 1.875 0 0 1-1.875 1.875h-1.25A1.875 1.875 0 0 1 15 15.625zm1.875-.625a.624.624 0 0 0-.625.625v1.25a.624.624 0 0 0 .625.625h1.25a.624.624 0 0 0 .625-.625v-1.25a.624.624 0 0 0-.625-.625z" clip-rule="evenodd"/></symbol>
<symbol id="solar_fridge-outline" viewBox="0 0 40 40"><path fill="currentColor" d="M23.667 9.333a1 1 0 0 0-2 0V12a1 1 0 1 0 2 0zm0 9.334a1 1 0 0 0-2 0v2.666a1 1 0 1 0 2 0z"/>
  <path fill="currentColor" fill-rule="evenodd" d="M16.075 1.667h-.15c-2.45 0-4.392 0-5.91.204-1.563.21-2.828.653-3.827 1.65-.997.999-1.44 2.264-1.65 3.827-.205 1.52-.205 3.46-.205 5.91v4.15c0 2.45 0 4.392.204 5.91.211 1.563.654 2.829 1.651 3.827.613.612 1.325 1.015 2.145 1.284v.904a1 1 0 0 0 1 1h1.334a1 1 0 0 0 1-1v-.394c1.209.061 2.62.061 4.258.061h.15c1.64 0 3.049 0 4.258-.061v.394a1 1 0 0 0 1 1h1.334a1 1 0 0 0 1-1v-.904c.82-.269 1.533-.672 2.145-1.284.997-.998 1.44-2.264 1.65-3.826.205-1.52.205-3.46.205-5.911V13.26c0-2.45 0-4.392-.204-5.91-.211-1.563-.654-2.829-1.651-3.827-.999-.998-2.264-1.44-3.827-1.651-1.52-.204-3.46-.204-5.91-.204M7.603 4.936c.564-.564 1.337-.903 2.678-1.083 1.371-.184 3.176-.186 5.719-.186s4.35.002 5.72.186c1.34.18 2.113.519 2.677 1.083s.903 1.337 1.083 2.679c.184 1.37.187 3.176.187 5.718v1H6.333v-1c0-2.542.003-4.348.187-5.72.18-1.34.519-2.113 1.083-2.677m-1.27 11.397h19.334v1c0 2.543-.003 4.35-.187 5.72-.18 1.34-.519 2.114-1.083 2.678s-1.337.902-2.678 1.082C20.348 26.997 18.543 27 16 27s-4.348-.003-5.72-.187c-1.34-.18-2.113-.518-2.677-1.082S6.7 24.393 6.52 23.052c-.184-1.37-.187-3.176-.187-5.719z" clip-rule="evenodd"/></symbol>
<symbol id="lucide_microwave" viewBox="0 0 40 40"><path stroke="currentColor" stroke-linecap="round" stroke-linejoin="round" stroke-width="2" d="M26.667 5.333H5.333A2.667 2.667 0 0 0 2.667 8v14.667a2.667 2.667 0 0 0 2.666 2.666h21.334a2.667 2.667 0 0 0 2.666-2.666V8a2.667 2.667 0 0 0-2.666-2.667"/>
  <path stroke="currentColor" stroke-linecap="round" stroke-linejoin="round" stroke-width="2" d="M17.333 10.667h-8C8.597 10.667 8 11.264 8 12v6.667C8 19.403 8.597 20 9.333 20h8c.737 0 1.334-.597 1.334-1.333V12c0-.736-.597-1.333-1.334-1.333m6.667 0V20M8 25.333V28m16-2.667V28"/></symbol>
<symbol id="hugeicons_gas-stove" viewBox="0 0 40 40"><path stroke="currentColor" stroke-linecap="round" stroke-linejoin="round" stroke-width="2.4" d="M8 25.333h5.333M24 25.345v-.012M2.667 8c0-4.413.92-5.333 5.333-5.333h16c4.413 0 5.333.92 5.333 5.333v16c0 4.413-.92 5.333-5.333 5.333H8c-4.413 0-5.333-.92-5.333-5.333z"/>
  <path stroke="currentColor" stroke-linecap="round" stroke-linejoin="round" stroke-width="2.4" d="M16 18.667A5.333 5.333 0 1 0 16 8a5.333 5.333 0 0 0 0 10.667m4.667-5.334h2M16 18v2m-4.667-6.667h-2M16 8.667v-2"/></symbol>
<symbol id="ion_water-outline" viewBox="0 0 40 40"><path stroke="currentColor" stroke-miterlimit="10" stroke-width="2" d="M25 20c0 5.523-3.477 9-9 9s-9-3.477-9-9c0-5.927 6.452-13.928 8.43-16.243a.75.75 0 0 1 1.14 0C18.548 6.072 25 14.073 25 20Z"/>
  <path stroke="currentColor" stroke-linecap="round" stroke-linejoin="round" stroke-width="2" d="M21.5 20.5A4.5 4.5 0 0 1 17 25"/></symbol>
<symbol id="ph_shower" viewBox="0 0 40 40"><path fill="currentColor" d="M8 29.5a1.5 1.5 0 1 1-3 0 1.5 1.5 0 0 1 3 0m2.5-5.5a1.5 1.5 0 1 0 0 3 1.5 1.5 0 0 0 0-3m-8 0a1.5 1.5 0 1 0 0 3 1.5 1.5 0 0 0 0-3m4-4a1.5 1.5 0 1 0 0 3 1.5 1.5 0 0 0 0-3M32 5a1 1 0 0 1-1 1h-3.586l-3.482 3.483-2.707 15.848a2 2 0 0 1-3.386 1.083l-12.25-12.25a2 2 0 0 1 1.086-3.388l15.842-2.708 3.776-3.775A1 1 0 0 1 27 4h4a1 1 0 0 1 1 1m-10.224 5.224L7 12.75 19.25 25z"/></symbol>
<symbol id="bi_grid-1x2" viewBox="0 0 40 40">
    <path fill="currentColor" d="M12 2H2v28h10zm18 0H20v10h10zm0 18v10H20V20zM0 2a2 2 0 0 1 2-2h10a2 2 0 0 1 2 2v28a2 2 0 0 1-2 2H2a2 2 0 0 1-2-2zm18 0a2 2 0 0 1 2-2h10a2 2 0 0 1 2 2v10a2 2 0 0 1-2 2H20a2 2 0 0 1-2-2zm2 16a2 2 0 0 0-2 2v10a2 2 0 0 0 2 2h10a2 2 0 0 0 2-2V20a2 2 0 0 0-2-2z"/>
  </symbol>
<symbol id="bi_grid" viewBox="0 0 40 40"><path fill="currentColor" d="M2 5a3 3 0 0 1 3-3h6a3 3 0 0 1 3 3v6a3 3 0 0 1-3 3H5a3 3 0 0 1-3-3zm3-1a1 1 0 0 0-1 1v6a1 1 0 0 0 1 1h6a1 1 0 0 0 1-1V5a1 1 0 0 0-1-1zm13 1a3 3 0 0 1 3-3h6a3 3 0 0 1 3 3v6a3 3 0 0 1-3 3h-6a3 3 0 0 1-3-3zm3-1a1 1 0 0 0-1 1v6a1 1 0 0 0 1 1h6a1 1 0 0 0 1-1V5a1 1 0 0 0-1-1zM2 21a3 3 0 0 1 3-3h6a3 3 0 0 1 3 3v6a3 3 0 0 1-3 3H5a3 3 0 0 1-3-3zm3-1a1 1 0 0 0-1 1v6a1 1 0 0 0 1 1h6a1 1 0 0 0 1-1v-6a1 1 0 0 0-1-1zm13 1a3 3 0 0 1 3-3h6a3 3 0 0 1 3 3v6a3 3 0 0 1-3 3h-6a3 3 0 0 1-3-3zm3-1a1 1 0 0 0-1 1v6a1 1 0 0 0 1 1h6a1 1 0 0 0 1-1v-6a1 1 0 0 0-1-1z"/></symbol>
<symbol id="bi_grid-3x3-gap" viewBox="0 0 40 40"><path fill="currentColor" d="M8 4v4H4V4zm2 24v-4a2 2 0 0 0-2-2H4a2 2 0 0 0-2 2v4a2 2 0 0 0 2 2h4a2 2 0 0 0 2-2m0-10v-4a2 2 0 0 0-2-2H4a2 2 0 0 0-2 2v4a2 2 0 0 0 2 2h4a2 2 0 0 0 2-2m0-10V4a2 2 0 0 0-2-2H4a2 2 0 0 0-2 2v4a2 2 0 0 0 2 2h4a2 2 0 0 0 2-2m10 20v-4a2 2 0 0 0-2-2h-4a2 2 0 0 0-2 2v4a2 2 0 0 0 2 2h4a2 2 0 0 0 2-2m0-10v-4a2 2 0 0 0-2-2h-4a2 2 0 0 0-2 2v4a2 2 0 0 0 2 2h4a2 2 0 0 0 2-2m0-10V4a2 2 0 0 0-2-2h-4a2 2 0 0 0-2 2v4a2 2 0 0 0 2 2h4a2 2 0 0 0 2-2m-2-4v4h-4V4zm10 0v4h-4V4zM8 14v4H4v-4zm10 0v4h-4v-4zm10 0h-4v4h4zM8 24v4H4v-4zm10 0v4h-4v-4zm10 0v4h-4v-4zM24 2a2 2 0 0 0-2 2v4a2 2 0 0 0 2 2h4a2 2 0 0 0 2-2V4a2 2 0 0 0-2-2zm-2 12a2 2 0 0 1 2-2h4a2 2 0 0 1 2 2v4a2 2 0 0 1-2 2h-4a2 2 0 0 1-2-2zm2 8a2 2 0 0 0-2 2v4a2 2 0 0 0 2 2h4a2 2 0 0 0 2-2v-4a2 2 0 0 0-2-2z"/></symbol>
<symbol id="tv" viewBox="0 0 40 40"><path fill="currentColor" d="M0 8s0-4 4-4h24s4 0 4 4v12s0 4-4 4h-8q0 2 .5 3H22a1 1 0 0 1 0 2H10a1 1 0 0 1 0-2h1.5q.5-1 .5-3H4s-4 0-4-4zm2.796-1.71a1.5 1.5 0 0 0-.508.604A3 3 0 0 0 2 8.02V20c0 .65.156 1.004.29 1.204q.21.312.604.508c.338.162.703.259 1.076.286l.05.002H28c.65 0 1.004-.156 1.204-.29a1.5 1.5 0 0 0 .508-.604c.162-.338.259-.703.286-1.076l.002-.05V8c0-.65-.156-1.004-.29-1.204a1.5 1.5 0 0 0-.604-.508A3 3 0 0 0 27.98 6H4c-.65 0-1.004.156-1.204.29"/></symbol>
<symbol id="wind" viewBox="0 0 40 40">
    <path fill="currentColor" d="M25 4a5 5 0 0 0-5 5 1 1 0 0 1-2 0 7 7 0 1 1 7 7H1a1 1 0 0 1 0-2h24a5 5 0 1 0 0-10M11 6a2 2 0 0 0-2 2 1 1 0 0 1-2 0 4 4 0 1 1 4 4H1a1 1 0 0 1 0-2h10a2 2 0 0 0 0-4M0 19a1 1 0 0 1 1-1h20.084a6 6 0 1 1-6 6 1 1 0 0 1 2 0 4 4 0 1 0 4-4H1a1 1 0 0 1-1-1"/>
  </symbol>
<symbol id="diagram" viewBox="0 0 40 40"><path fill="currentColor" fill-rule="evenodd" d="M12 7a3 3 0 0 1 3-3h2a3 3 0 0 1 3 3v2a3 3 0 0 1-3 3v2h11a1 1 0 0 1 1 1v2a1 1 0 0 1-2 0v-1H17v1a1 1 0 0 1-2 0v-1H5v1a1 1 0 1 1-2 0v-2a1 1 0 0 1 1-1h11v-2a3 3 0 0 1-3-3zm5 3a1 1 0 0 0 1-1V7a1 1 0 0 0-1-1h-2a1 1 0 0 0-1 1v2a1 1 0 0 0 1 1zM0 23a3 3 0 0 1 3-3h2a3 3 0 0 1 3 3v2a3 3 0 0 1-3 3H3a3 3 0 0 1-3-3zm3-1a1 1 0 0 0-1 1v2a1 1 0 0 0 1 1h2a1 1 0 0 0 1-1v-2a1 1 0 0 0-1-1zm9 1a3 3 0 0 1 3-3h2a3 3 0 0 1 3 3v2a3 3 0 0 1-3 3h-2a3 3 0 0 1-3-3zm3-1a1 1 0 0 0-1 1v2a1 1 0 0 0 1 1h2a1 1 0 0 0 1-1v-2a1 1 0 0 0-1-1zm9 1a3 3 0 0 1 3-3h2a3 3 0 0 1 3 3v2a3 3 0 0 1-3 3h-2a3 3 0 0 1-3-3zm3-1a1 1 0 0 0-1 1v2a1 1 0 0 0 1 1h2a1 1 0 0 0 1-1v-2a1 1 0 0 0-1-1z" clip-rule="evenodd"/></symbol>
<symbol id="cup-hot" viewBox="0 0 40 40">
    <path fill-rule="evenodd" d="M1 12a1 1 0 0 0-.976 1.216l3.304 14.868A5 5 0 0 0 8.208 32h11.584a5 5 0 0 0 4.88-3.916l.262-1.18a6 6 0 0 0 2.6-11.708l.442-1.98A1 1 0 0 0 27 12zm25 13q-.318 0-.632-.05l1.734-7.796A4.002 4.002 0 0 1 26 25M5.28 27.65 2.246 14h23.508L22.72 27.65A3 3 0 0 1 19.792 30H8.208a3 3 0 0 1-2.928-2.35" clip-rule="evenodd"/>
    <path d="m8.8 1.6-.006.008-.028.038q-.219.3-.408.62a4 4 0 0 0-.282.534c-.052.12-.068.184-.074.206v.008a1.2 1.2 0 0 0 .182.496c.15.266.356.544.616.89l.02.024c.236.316.52.694.74 1.086.224.4.44.91.44 1.49 0 .376-.13.736-.238.988a6 6 0 0 1-.404.776 10 10 0 0 1-.506.764l-.036.05-.01.016-.004.004A1 1 0 1 1 7.2 8.4l.006-.008.028-.038q.219-.3.408-.62a4 4 0 0 0 .282-.534c.052-.12.068-.184.074-.206a1.2 1.2 0 0 0-.18-.504A8 8 0 0 0 7.2 5.6l-.02-.024a10 10 0 0 1-.74-1.086A3.06 3.06 0 0 1 6 3c0-.376.13-.736.238-.988.118-.276.268-.548.404-.776q.239-.392.506-.764l.05-.07A1 1 0 1 1 8.8 1.6m6 0-.006.008-.028.038q-.219.3-.408.62-.161.257-.282.534c-.052.12-.068.184-.074.206v.008a1.2 1.2 0 0 0 .182.496c.15.266.356.544.616.89l.02.024c.236.316.52.694.74 1.086.224.4.44.91.44 1.49 0 .376-.13.736-.238.988q-.174.403-.404.776a10 10 0 0 1-.506.764l-.036.05-.01.016-.004.004A1 1 0 0 1 13.2 8.4l.006-.008.028-.038q.219-.3.408-.62.161-.256.282-.534c.052-.12.068-.184.074-.206a1.2 1.2 0 0 0-.18-.504 8 8 0 0 0-.618-.89l-.02-.024q-.405-.518-.74-1.086A3.06 3.06 0 0 1 12 3c0-.376.13-.736.238-.988.118-.276.268-.548.404-.776q.239-.392.506-.764l.05-.07A1 1 0 0 1 14.8 1.6m6 0-.006.008-.028.038q-.218.3-.408.62-.161.257-.282.534c-.052.12-.068.184-.074.206v.008a1.2 1.2 0 0 0 .182.496c.15.266.356.544.616.89l.02.024c.236.316.52.694.74 1.086.224.4.44.91.44 1.49 0 .376-.13.736-.238.988q-.174.403-.404.776-.234.393-.504.764l-.038.05-.01.016-.004.004A1 1 0 0 1 19.2 8.4l.006-.008.028-.038q.218-.3.408-.62.161-.256.282-.534c.052-.12.068-.184.074-.206a1.2 1.2 0 0 0-.18-.504 8 8 0 0 0-.618-.89l-.02-.024q-.405-.518-.74-1.086A3.06 3.06 0 0 1 18 3c0-.376.13-.736.238-.988.118-.276.268-.548.404-.776q.239-.392.506-.764l.05-.07A1 1 0 0 1 20.8 1.6"/>
  </symbol>
</svg>

