<svg xmlns="http://www.w3.org/2000/svg" width="136" height="16" fill="none">
  <path fill="#475467" d="M135.393 7.187h-3.608a1 1 0 0 0-.235-.575 1.3 1.3 0 0 0-.532-.37 1.8 1.8 0 0 0-.711-.134q-.504 0-.866.185-.363.184-.355.525-.007.241.206.448.22.205.845.32l2.216.397q1.675.306 2.493 1.03.823.717.831 1.924-.008 1.165-.696 2.025-.683.852-1.868 1.32-1.18.462-2.692.462-2.5 0-3.913-1.022-1.407-1.023-1.57-2.7h3.892q.079.52.511.803.44.277 1.108.277.54 0 .888-.184.356-.185.362-.526-.007-.312-.312-.497-.299-.185-.938-.298l-1.931-.341q-1.67-.292-2.5-1.108-.831-.818-.824-2.103-.007-1.136.596-1.924.61-.795 1.74-1.208 1.137-.42 2.692-.419 2.365 0 3.729.98 1.37.98 1.442 2.713m-18.978 4.773.028-4.659h.512l2.642-3.665H124l-4.432 5.71h-1.108zm-3.523 2.585V0h3.921v14.546zm6.733 0-2.5-4.318 2.557-2.784 4.432 7.103zm-14.006.199q-1.776 0-3.04-.703a4.84 4.84 0 0 1-1.939-1.974q-.675-1.271-.675-2.948 0-1.676.675-2.94a4.8 4.8 0 0 1 1.939-1.975q1.264-.71 3.04-.71 1.605 0 2.777.583 1.179.575 1.825 1.633.647 1.05.654 2.472h-3.637q-.078-.86-.497-1.307-.412-.455-1.065-.455-.512 0-.895.299-.384.291-.597.887-.213.59-.213 1.485t.213 1.491q.213.59.597.888.383.291.895.291.432 0 .767-.199.333-.206.539-.596.214-.397.256-.966h3.637q-.022 1.442-.661 2.514-.64 1.066-1.811 1.648-1.165.582-2.784.582m-11.57-4.971V3.636h3.92v10.91h-3.721v-2.074h-.114a3.1 3.1 0 0 1-1.243 1.633q-.888.582-2.11.582-1.144 0-2.002-.525a3.6 3.6 0 0 1-1.328-1.449q-.469-.923-.476-2.116v-6.96h3.92v6.136q.007.81.412 1.271.412.462 1.15.462.492 0 .846-.206.363-.213.554-.597.2-.39.192-.93m-16.146 4.772V3.636h3.807V5.71h.113q.3-1.15.945-1.683a2.34 2.34 0 0 1 1.527-.533q.256 0 .504.043.255.036.49.106V6.99a3.5 3.5 0 0 0-.717-.15 7 7 0 0 0-.731-.05q-.576 0-1.037.264-.455.255-.718.724-.263.462-.263 1.087v5.681zM64.45 3.182V0h12.643v3.182h-4.375v11.364h-3.892V3.182z"/>
  <path fill="#101828" d="M62.508 0v14.546h-3.92V0zM51.247 14.744q-1.748 0-3.012-.667a4.7 4.7 0 0 1-1.939-1.932q-.675-1.264-.674-3.026 0-1.69.681-2.954a4.87 4.87 0 0 1 1.925-1.968q1.244-.703 2.933-.703 1.236 0 2.238.384a4.7 4.7 0 0 1 1.711 1.115q.71.724 1.094 1.761t.384 2.337V10h-9.745V7.84h6.137a1.5 1.5 0 0 0-.242-.823 1.54 1.54 0 0 0-.618-.561 1.8 1.8 0 0 0-.873-.206 1.9 1.9 0 0 0-.874.206 1.65 1.65 0 0 0-.64.554q-.233.356-.248.83v2.33q0 .525.22.938t.633.646q.411.235.994.235.405 0 .739-.114a1.7 1.7 0 0 0 .582-.327q.241-.22.355-.525h3.58a4.1 4.1 0 0 1-.874 1.974q-.69.831-1.825 1.293-1.13.454-2.642.454M44.836 3.636l-3.664 10.91h-4.546l-3.665-10.91h4.12l1.761 7.216h.114l1.761-7.216zm-19.78 11.08q-1.044 0-1.847-.341a2.8 2.8 0 0 1-1.25-1.051q-.454-.703-.454-1.79 0-.895.305-1.527a2.75 2.75 0 0 1 .853-1.044q.546-.405 1.27-.618a7.7 7.7 0 0 1 1.578-.277q.915-.07 1.47-.17.561-.106.81-.292a.6.6 0 0 0 .248-.504v-.028q0-.426-.327-.654-.327-.227-.838-.227-.561 0-.916.249-.348.241-.419.745h-3.608a3.7 3.7 0 0 1 .632-1.832q.568-.844 1.655-1.35 1.086-.51 2.713-.51 1.172 0 2.102.276.93.27 1.584.76.654.483.994 1.137.348.646.348 1.406v7.471h-3.664v-1.534h-.086a3.15 3.15 0 0 1-.795.988q-.462.376-1.058.546a4.7 4.7 0 0 1-1.3.17m1.278-2.472q.448 0 .838-.184.398-.185.647-.533.248-.348.248-.845v-.91a5 5 0 0 1-.333.121 7 7 0 0 1-.781.199 10 10 0 0 1-.448.078 2.2 2.2 0 0 0-.746.235q-.284.156-.426.39a1 1 0 0 0-.135.512q0 .455.32.696t.816.241m-12.882 2.302V3.636h3.807V5.71h.114q.297-1.15.944-1.683a2.34 2.34 0 0 1 1.527-.533q.255 0 .505.043.255.036.49.106V6.99a3.5 3.5 0 0 0-.718-.15 7 7 0 0 0-.731-.05q-.576 0-1.037.264-.454.255-.718.724-.262.462-.262 1.087v5.681zM0 3.182V0h12.642v3.182H8.267v11.364H4.375V3.182z"/>
</svg>